ISO-10303-21;
HEADER;
/* Generated by software containing ST-Developer
 * from STEP Tools, Inc. (www.steptools.com) 
 */

FILE_DESCRIPTION(
/* description */ (''),
/* implementation_level */ '2;1');

FILE_NAME(
/* name */ 'KeyboardBezel.step',
/* time_stamp */ '2026-05-02T15:50:22-07:00',
/* author */ (''),
/* organization */ (''),
/* preprocessor_version */ 'ST-DEVELOPER v20.1',
/* originating_system */ 'Autodesk Translation Framework v15.8.0.0',
/* authorisation */ '');

FILE_SCHEMA (('AUTOMOTIVE_DESIGN { 1 0 10303 214 3 1 1 }'));
ENDSEC;

DATA;
#10=MECHANICAL_DESIGN_GEOMETRIC_PRESENTATION_REPRESENTATION('',(#13),#475);
#11=SHAPE_REPRESENTATION_RELATIONSHIP('SRR','None',#482,#12);
#12=ADVANCED_BREP_SHAPE_REPRESENTATION('',(#14),#474);
#13=STYLED_ITEM('',(#491),#14);
#14=MANIFOLD_SOLID_BREP('Body1',#287);
#15=FACE_BOUND('',#64,.T.);
#16=FACE_BOUND('',#65,.T.);
#17=FACE_BOUND('',#66,.T.);
#18=FACE_BOUND('',#67,.T.);
#19=FACE_BOUND('',#68,.T.);
#20=FACE_BOUND('',#70,.T.);
#21=FACE_BOUND('',#71,.T.);
#22=FACE_BOUND('',#72,.T.);
#23=FACE_BOUND('',#73,.T.);
#24=FACE_BOUND('',#74,.T.);
#25=CIRCLE('',#306,3.00000000000001);
#26=CIRCLE('',#307,3.00000000000001);
#27=CIRCLE('',#309,3.00000000000001);
#28=CIRCLE('',#310,3.00000000000001);
#29=CIRCLE('',#312,3.00000000000004);
#30=CIRCLE('',#313,3.00000000000004);
#31=CIRCLE('',#315,2.99999999999997);
#32=CIRCLE('',#316,2.99999999999997);
#33=CYLINDRICAL_SURFACE('',#305,3.00000000000001);
#34=CYLINDRICAL_SURFACE('',#308,3.00000000000001);
#35=CYLINDRICAL_SURFACE('',#311,3.00000000000004);
#36=CYLINDRICAL_SURFACE('',#314,2.99999999999997);
#37=FACE_OUTER_BOUND('',#51,.T.);
#38=FACE_OUTER_BOUND('',#52,.T.);
#39=FACE_OUTER_BOUND('',#53,.T.);
#40=FACE_OUTER_BOUND('',#54,.T.);
#41=FACE_OUTER_BOUND('',#55,.T.);
#42=FACE_OUTER_BOUND('',#56,.T.);
#43=FACE_OUTER_BOUND('',#57,.T.);
#44=FACE_OUTER_BOUND('',#58,.T.);
#45=FACE_OUTER_BOUND('',#59,.T.);
#46=FACE_OUTER_BOUND('',#60,.T.);
#47=FACE_OUTER_BOUND('',#61,.T.);
#48=FACE_OUTER_BOUND('',#62,.T.);
#49=FACE_OUTER_BOUND('',#63,.T.);
#50=FACE_OUTER_BOUND('',#69,.T.);
#51=EDGE_LOOP('',(#191,#192,#193,#194));
#52=EDGE_LOOP('',(#195,#196,#197,#198));
#53=EDGE_LOOP('',(#199,#200,#201,#202));
#54=EDGE_LOOP('',(#203,#204,#205,#206));
#55=EDGE_LOOP('',(#207,#208,#209,#210));
#56=EDGE_LOOP('',(#211,#212,#213,#214));
#57=EDGE_LOOP('',(#215,#216,#217,#218));
#58=EDGE_LOOP('',(#219,#220,#221,#222));
#59=EDGE_LOOP('',(#223,#224,#225,#226));
#60=EDGE_LOOP('',(#227,#228,#229,#230));
#61=EDGE_LOOP('',(#231,#232,#233,#234));
#62=EDGE_LOOP('',(#235,#236,#237,#238));
#63=EDGE_LOOP('',(#239,#240,#241,#242));
#64=EDGE_LOOP('',(#243,#244,#245,#246));
#65=EDGE_LOOP('',(#247));
#66=EDGE_LOOP('',(#248));
#67=EDGE_LOOP('',(#249));
#68=EDGE_LOOP('',(#250));
#69=EDGE_LOOP('',(#251,#252,#253,#254));
#70=EDGE_LOOP('',(#255,#256,#257,#258));
#71=EDGE_LOOP('',(#259));
#72=EDGE_LOOP('',(#260));
#73=EDGE_LOOP('',(#261));
#74=EDGE_LOOP('',(#262));
#75=LINE('',#401,#103);
#76=LINE('',#403,#104);
#77=LINE('',#405,#105);
#78=LINE('',#406,#106);
#79=LINE('',#409,#107);
#80=LINE('',#411,#108);
#81=LINE('',#412,#109);
#82=LINE('',#415,#110);
#83=LINE('',#417,#111);
#84=LINE('',#418,#112);
#85=LINE('',#420,#113);
#86=LINE('',#421,#114);
#87=LINE('',#426,#115);
#88=LINE('',#432,#116);
#89=LINE('',#438,#117);
#90=LINE('',#444,#118);
#91=LINE('',#449,#119);
#92=LINE('',#451,#120);
#93=LINE('',#453,#121);
#94=LINE('',#454,#122);
#95=LINE('',#457,#123);
#96=LINE('',#459,#124);
#97=LINE('',#460,#125);
#98=LINE('',#463,#126);
#99=LINE('',#465,#127);
#100=LINE('',#466,#128);
#101=LINE('',#468,#129);
#102=LINE('',#469,#130);
#103=VECTOR('',#327,10.);
#104=VECTOR('',#328,10.);
#105=VECTOR('',#329,10.);
#106=VECTOR('',#330,10.);
#107=VECTOR('',#333,10.);
#108=VECTOR('',#334,10.);
#109=VECTOR('',#335,10.);
#110=VECTOR('',#338,10.);
#111=VECTOR('',#339,10.);
#112=VECTOR('',#340,10.);
#113=VECTOR('',#343,10.);
#114=VECTOR('',#344,10.);
#115=VECTOR('',#349,3.00000000000001);
#116=VECTOR('',#356,3.00000000000001);
#117=VECTOR('',#363,3.00000000000004);
#118=VECTOR('',#370,2.99999999999997);
#119=VECTOR('',#375,10.);
#120=VECTOR('',#376,10.);
#121=VECTOR('',#377,10.);
#122=VECTOR('',#378,10.);
#123=VECTOR('',#381,10.);
#124=VECTOR('',#382,10.);
#125=VECTOR('',#383,10.);
#126=VECTOR('',#386,10.);
#127=VECTOR('',#387,10.);
#128=VECTOR('',#388,10.);
#129=VECTOR('',#391,10.);
#130=VECTOR('',#392,10.);
#131=VERTEX_POINT('',#399);
#132=VERTEX_POINT('',#400);
#133=VERTEX_POINT('',#402);
#134=VERTEX_POINT('',#404);
#135=VERTEX_POINT('',#408);
#136=VERTEX_POINT('',#410);
#137=VERTEX_POINT('',#414);
#138=VERTEX_POINT('',#416);
#139=VERTEX_POINT('',#423);
#140=VERTEX_POINT('',#425);
#141=VERTEX_POINT('',#429);
#142=VERTEX_POINT('',#431);
#143=VERTEX_POINT('',#435);
#144=VERTEX_POINT('',#437);
#145=VERTEX_POINT('',#441);
#146=VERTEX_POINT('',#443);
#147=VERTEX_POINT('',#447);
#148=VERTEX_POINT('',#448);
#149=VERTEX_POINT('',#450);
#150=VERTEX_POINT('',#452);
#151=VERTEX_POINT('',#456);
#152=VERTEX_POINT('',#458);
#153=VERTEX_POINT('',#462);
#154=VERTEX_POINT('',#464);
#155=EDGE_CURVE('',#131,#132,#75,.T.);
#156=EDGE_CURVE('',#133,#131,#76,.T.);
#157=EDGE_CURVE('',#134,#133,#77,.T.);
#158=EDGE_CURVE('',#134,#132,#78,.T.);
#159=EDGE_CURVE('',#132,#135,#79,.T.);
#160=EDGE_CURVE('',#136,#134,#80,.T.);
#161=EDGE_CURVE('',#136,#135,#81,.T.);
#162=EDGE_CURVE('',#135,#137,#82,.T.);
#163=EDGE_CURVE('',#138,#136,#83,.T.);
#164=EDGE_CURVE('',#138,#137,#84,.T.);
#165=EDGE_CURVE('',#137,#131,#85,.T.);
#166=EDGE_CURVE('',#133,#138,#86,.T.);
#167=EDGE_CURVE('',#139,#139,#25,.T.);
#168=EDGE_CURVE('',#139,#140,#87,.T.);
#169=EDGE_CURVE('',#140,#140,#26,.T.);
#170=EDGE_CURVE('',#141,#141,#27,.T.);
#171=EDGE_CURVE('',#141,#142,#88,.T.);
#172=EDGE_CURVE('',#142,#142,#28,.T.);
#173=EDGE_CURVE('',#143,#143,#29,.T.);
#174=EDGE_CURVE('',#143,#144,#89,.T.);
#175=EDGE_CURVE('',#144,#144,#30,.T.);
#176=EDGE_CURVE('',#145,#145,#31,.T.);
#177=EDGE_CURVE('',#145,#146,#90,.T.);
#178=EDGE_CURVE('',#146,#146,#32,.T.);
#179=EDGE_CURVE('',#147,#148,#91,.T.);
#180=EDGE_CURVE('',#147,#149,#92,.T.);
#181=EDGE_CURVE('',#150,#149,#93,.T.);
#182=EDGE_CURVE('',#148,#150,#94,.T.);
#183=EDGE_CURVE('',#148,#151,#95,.T.);
#184=EDGE_CURVE('',#152,#150,#96,.T.);
#185=EDGE_CURVE('',#151,#152,#97,.T.);
#186=EDGE_CURVE('',#151,#153,#98,.T.);
#187=EDGE_CURVE('',#154,#152,#99,.T.);
#188=EDGE_CURVE('',#153,#154,#100,.T.);
#189=EDGE_CURVE('',#153,#147,#101,.T.);
#190=EDGE_CURVE('',#149,#154,#102,.T.);
#191=ORIENTED_EDGE('',*,*,#155,.F.);
#192=ORIENTED_EDGE('',*,*,#156,.F.);
#193=ORIENTED_EDGE('',*,*,#157,.F.);
#194=ORIENTED_EDGE('',*,*,#158,.T.);
#195=ORIENTED_EDGE('',*,*,#159,.F.);
#196=ORIENTED_EDGE('',*,*,#158,.F.);
#197=ORIENTED_EDGE('',*,*,#160,.F.);
#198=ORIENTED_EDGE('',*,*,#161,.T.);
#199=ORIENTED_EDGE('',*,*,#162,.F.);
#200=ORIENTED_EDGE('',*,*,#161,.F.);
#201=ORIENTED_EDGE('',*,*,#163,.F.);
#202=ORIENTED_EDGE('',*,*,#164,.T.);
#203=ORIENTED_EDGE('',*,*,#165,.F.);
#204=ORIENTED_EDGE('',*,*,#164,.F.);
#205=ORIENTED_EDGE('',*,*,#166,.F.);
#206=ORIENTED_EDGE('',*,*,#156,.T.);
#207=ORIENTED_EDGE('',*,*,#167,.F.);
#208=ORIENTED_EDGE('',*,*,#168,.T.);
#209=ORIENTED_EDGE('',*,*,#169,.T.);
#210=ORIENTED_EDGE('',*,*,#168,.F.);
#211=ORIENTED_EDGE('',*,*,#170,.F.);
#212=ORIENTED_EDGE('',*,*,#171,.T.);
#213=ORIENTED_EDGE('',*,*,#172,.T.);
#214=ORIENTED_EDGE('',*,*,#171,.F.);
#215=ORIENTED_EDGE('',*,*,#173,.F.);
#216=ORIENTED_EDGE('',*,*,#174,.T.);
#217=ORIENTED_EDGE('',*,*,#175,.T.);
#218=ORIENTED_EDGE('',*,*,#174,.F.);
#219=ORIENTED_EDGE('',*,*,#176,.F.);
#220=ORIENTED_EDGE('',*,*,#177,.T.);
#221=ORIENTED_EDGE('',*,*,#178,.T.);
#222=ORIENTED_EDGE('',*,*,#177,.F.);
#223=ORIENTED_EDGE('',*,*,#179,.F.);
#224=ORIENTED_EDGE('',*,*,#180,.T.);
#225=ORIENTED_EDGE('',*,*,#181,.F.);
#226=ORIENTED_EDGE('',*,*,#182,.F.);
#227=ORIENTED_EDGE('',*,*,#183,.F.);
#228=ORIENTED_EDGE('',*,*,#182,.T.);
#229=ORIENTED_EDGE('',*,*,#184,.F.);
#230=ORIENTED_EDGE('',*,*,#185,.F.);
#231=ORIENTED_EDGE('',*,*,#186,.F.);
#232=ORIENTED_EDGE('',*,*,#185,.T.);
#233=ORIENTED_EDGE('',*,*,#187,.F.);
#234=ORIENTED_EDGE('',*,*,#188,.F.);
#235=ORIENTED_EDGE('',*,*,#189,.F.);
#236=ORIENTED_EDGE('',*,*,#188,.T.);
#237=ORIENTED_EDGE('',*,*,#190,.F.);
#238=ORIENTED_EDGE('',*,*,#180,.F.);
#239=ORIENTED_EDGE('',*,*,#190,.T.);
#240=ORIENTED_EDGE('',*,*,#187,.T.);
#241=ORIENTED_EDGE('',*,*,#184,.T.);
#242=ORIENTED_EDGE('',*,*,#181,.T.);
#243=ORIENTED_EDGE('',*,*,#162,.T.);
#244=ORIENTED_EDGE('',*,*,#165,.T.);
#245=ORIENTED_EDGE('',*,*,#155,.T.);
#246=ORIENTED_EDGE('',*,*,#159,.T.);
#247=ORIENTED_EDGE('',*,*,#176,.T.);
#248=ORIENTED_EDGE('',*,*,#173,.T.);
#249=ORIENTED_EDGE('',*,*,#170,.T.);
#250=ORIENTED_EDGE('',*,*,#167,.T.);
#251=ORIENTED_EDGE('',*,*,#189,.T.);
#252=ORIENTED_EDGE('',*,*,#179,.T.);
#253=ORIENTED_EDGE('',*,*,#183,.T.);
#254=ORIENTED_EDGE('',*,*,#186,.T.);
#255=ORIENTED_EDGE('',*,*,#163,.T.);
#256=ORIENTED_EDGE('',*,*,#160,.T.);
#257=ORIENTED_EDGE('',*,*,#157,.T.);
#258=ORIENTED_EDGE('',*,*,#166,.T.);
#259=ORIENTED_EDGE('',*,*,#178,.F.);
#260=ORIENTED_EDGE('',*,*,#175,.F.);
#261=ORIENTED_EDGE('',*,*,#172,.F.);
#262=ORIENTED_EDGE('',*,*,#169,.F.);
#263=PLANE('',#301);
#264=PLANE('',#302);
#265=PLANE('',#303);
#266=PLANE('',#304);
#267=PLANE('',#317);
#268=PLANE('',#318);
#269=PLANE('',#319);
#270=PLANE('',#320);
#271=PLANE('',#321);
#272=PLANE('',#322);
#273=ADVANCED_FACE('',(#37),#263,.F.);
#274=ADVANCED_FACE('',(#38),#264,.F.);
#275=ADVANCED_FACE('',(#39),#265,.F.);
#276=ADVANCED_FACE('',(#40),#266,.F.);
#277=ADVANCED_FACE('',(#41),#33,.F.);
#278=ADVANCED_FACE('',(#42),#34,.F.);
#279=ADVANCED_FACE('',(#43),#35,.F.);
#280=ADVANCED_FACE('',(#44),#36,.F.);
#281=ADVANCED_FACE('',(#45),#267,.T.);
#282=ADVANCED_FACE('',(#46),#268,.T.);
#283=ADVANCED_FACE('',(#47),#269,.T.);
#284=ADVANCED_FACE('',(#48),#270,.T.);
#285=ADVANCED_FACE('',(#49,#15,#16,#17,#18,#19),#271,.T.);
#286=ADVANCED_FACE('',(#50,#20,#21,#22,#23,#24),#272,.F.);
#287=CLOSED_SHELL('',(#273,#274,#275,#276,#277,#278,#279,#280,#281,#282,
#283,#284,#285,#286));
#288=DERIVED_UNIT_ELEMENT(#290,1.);
#289=DERIVED_UNIT_ELEMENT(#477,-3.);
#290=(
MASS_UNIT()
NAMED_UNIT(*)
SI_UNIT(.KILO.,.GRAM.)
);
#291=DERIVED_UNIT((#288,#289));
#292=MEASURE_REPRESENTATION_ITEM('density measure',
POSITIVE_RATIO_MEASURE(7850.),#291);
#293=PROPERTY_DEFINITION_REPRESENTATION(#298,#295);
#294=PROPERTY_DEFINITION_REPRESENTATION(#299,#296);
#295=REPRESENTATION('material name',(#297),#474);
#296=REPRESENTATION('density',(#292),#474);
#297=DESCRIPTIVE_REPRESENTATION_ITEM('Steel','Steel');
#298=PROPERTY_DEFINITION('material property','material name',#484);
#299=PROPERTY_DEFINITION('material property','density of part',#484);
#300=AXIS2_PLACEMENT_3D('',#397,#323,#324);
#301=AXIS2_PLACEMENT_3D('',#398,#325,#326);
#302=AXIS2_PLACEMENT_3D('',#407,#331,#332);
#303=AXIS2_PLACEMENT_3D('',#413,#336,#337);
#304=AXIS2_PLACEMENT_3D('',#419,#341,#342);
#305=AXIS2_PLACEMENT_3D('',#422,#345,#346);
#306=AXIS2_PLACEMENT_3D('',#424,#347,#348);
#307=AXIS2_PLACEMENT_3D('',#427,#350,#351);
#308=AXIS2_PLACEMENT_3D('',#428,#352,#353);
#309=AXIS2_PLACEMENT_3D('',#430,#354,#355);
#310=AXIS2_PLACEMENT_3D('',#433,#357,#358);
#311=AXIS2_PLACEMENT_3D('',#434,#359,#360);
#312=AXIS2_PLACEMENT_3D('',#436,#361,#362);
#313=AXIS2_PLACEMENT_3D('',#439,#364,#365);
#314=AXIS2_PLACEMENT_3D('',#440,#366,#367);
#315=AXIS2_PLACEMENT_3D('',#442,#368,#369);
#316=AXIS2_PLACEMENT_3D('',#445,#371,#372);
#317=AXIS2_PLACEMENT_3D('',#446,#373,#374);
#318=AXIS2_PLACEMENT_3D('',#455,#379,#380);
#319=AXIS2_PLACEMENT_3D('',#461,#384,#385);
#320=AXIS2_PLACEMENT_3D('',#467,#389,#390);
#321=AXIS2_PLACEMENT_3D('',#470,#393,#394);
#322=AXIS2_PLACEMENT_3D('',#471,#395,#396);
#323=DIRECTION('axis',(0.,0.,1.));
#324=DIRECTION('refdir',(1.,0.,0.));
#325=DIRECTION('center_axis',(1.,0.,0.));
#326=DIRECTION('ref_axis',(0.,1.,0.));
#327=DIRECTION('',(0.,-1.,0.));
#328=DIRECTION('',(0.,0.,1.));
#329=DIRECTION('',(0.,1.,0.));
#330=DIRECTION('',(0.,0.,1.));
#331=DIRECTION('center_axis',(0.,-1.,0.));
#332=DIRECTION('ref_axis',(1.,0.,0.));
#333=DIRECTION('',(-1.,0.,0.));
#334=DIRECTION('',(1.,0.,0.));
#335=DIRECTION('',(0.,0.,1.));
#336=DIRECTION('center_axis',(-1.,0.,0.));
#337=DIRECTION('ref_axis',(0.,-1.,0.));
#338=DIRECTION('',(0.,1.,0.));
#339=DIRECTION('',(0.,-1.,0.));
#340=DIRECTION('',(0.,0.,1.));
#341=DIRECTION('center_axis',(0.,1.,0.));
#342=DIRECTION('ref_axis',(-1.,0.,0.));
#343=DIRECTION('',(1.,0.,0.));
#344=DIRECTION('',(-1.,0.,0.));
#345=DIRECTION('center_axis',(0.,0.,1.));
#346=DIRECTION('ref_axis',(1.,0.,0.));
#347=DIRECTION('center_axis',(0.,0.,-1.));
#348=DIRECTION('ref_axis',(1.,0.,0.));
#349=DIRECTION('',(0.,0.,-1.));
#350=DIRECTION('center_axis',(0.,0.,-1.));
#351=DIRECTION('ref_axis',(1.,0.,0.));
#352=DIRECTION('center_axis',(0.,0.,1.));
#353=DIRECTION('ref_axis',(1.,0.,0.));
#354=DIRECTION('center_axis',(0.,0.,-1.));
#355=DIRECTION('ref_axis',(1.,0.,0.));
#356=DIRECTION('',(0.,0.,-1.));
#357=DIRECTION('center_axis',(0.,0.,-1.));
#358=DIRECTION('ref_axis',(1.,0.,0.));
#359=DIRECTION('center_axis',(0.,0.,1.));
#360=DIRECTION('ref_axis',(1.,0.,0.));
#361=DIRECTION('center_axis',(0.,0.,-1.));
#362=DIRECTION('ref_axis',(1.,0.,0.));
#363=DIRECTION('',(0.,0.,-1.));
#364=DIRECTION('center_axis',(0.,0.,-1.));
#365=DIRECTION('ref_axis',(1.,0.,0.));
#366=DIRECTION('center_axis',(0.,0.,1.));
#367=DIRECTION('ref_axis',(1.,0.,0.));
#368=DIRECTION('center_axis',(0.,0.,-1.));
#369=DIRECTION('ref_axis',(1.,0.,0.));
#370=DIRECTION('',(0.,0.,-1.));
#371=DIRECTION('center_axis',(0.,0.,-1.));
#372=DIRECTION('ref_axis',(1.,0.,0.));
#373=DIRECTION('center_axis',(1.,0.,0.));
#374=DIRECTION('ref_axis',(0.,1.,0.));
#375=DIRECTION('',(0.,-1.,0.));
#376=DIRECTION('',(0.,0.,1.));
#377=DIRECTION('',(0.,1.,0.));
#378=DIRECTION('',(0.,0.,1.));
#379=DIRECTION('center_axis',(0.,-1.,0.));
#380=DIRECTION('ref_axis',(1.,0.,0.));
#381=DIRECTION('',(-1.,0.,0.));
#382=DIRECTION('',(1.,0.,0.));
#383=DIRECTION('',(0.,0.,1.));
#384=DIRECTION('center_axis',(-1.,0.,0.));
#385=DIRECTION('ref_axis',(0.,-1.,0.));
#386=DIRECTION('',(0.,1.,0.));
#387=DIRECTION('',(0.,-1.,0.));
#388=DIRECTION('',(0.,0.,1.));
#389=DIRECTION('center_axis',(0.,1.,0.));
#390=DIRECTION('ref_axis',(-1.,0.,0.));
#391=DIRECTION('',(1.,0.,0.));
#392=DIRECTION('',(-1.,0.,0.));
#393=DIRECTION('center_axis',(0.,0.,1.));
#394=DIRECTION('ref_axis',(1.,0.,0.));
#395=DIRECTION('center_axis',(0.,0.,1.));
#396=DIRECTION('ref_axis',(1.,0.,0.));
#397=CARTESIAN_POINT('',(0.,0.,0.));
#398=CARTESIAN_POINT('Origin',(-10.5,9.49999999999999,0.));
#399=CARTESIAN_POINT('',(-10.5,141.5,5.));
#400=CARTESIAN_POINT('',(-10.5,9.5,5.));
#401=CARTESIAN_POINT('',(-10.5,42.75,5.));
#402=CARTESIAN_POINT('',(-10.5,141.5,0.));
#403=CARTESIAN_POINT('',(-10.5,141.5,0.));
#404=CARTESIAN_POINT('',(-10.5,9.5,0.));
#405=CARTESIAN_POINT('',(-10.5,42.75,0.));
#406=CARTESIAN_POINT('',(-10.5,9.5,0.));
#407=CARTESIAN_POINT('Origin',(-361.5,9.5,0.));
#408=CARTESIAN_POINT('',(-361.5,9.5,5.));
#409=CARTESIAN_POINT('',(-273.5,9.5,5.));
#410=CARTESIAN_POINT('',(-361.5,9.5,0.));
#411=CARTESIAN_POINT('',(-273.5,9.5,0.));
#412=CARTESIAN_POINT('',(-361.5,9.5,0.));
#413=CARTESIAN_POINT('Origin',(-361.5,141.5,0.));
#414=CARTESIAN_POINT('',(-361.5,141.5,5.));
#415=CARTESIAN_POINT('',(-361.5,108.75,5.));
#416=CARTESIAN_POINT('',(-361.5,141.5,0.));
#417=CARTESIAN_POINT('',(-361.5,108.75,0.));
#418=CARTESIAN_POINT('',(-361.5,141.5,0.));
#419=CARTESIAN_POINT('Origin',(-10.5,141.5,0.));
#420=CARTESIAN_POINT('',(-98.,141.5,5.));
#421=CARTESIAN_POINT('',(-98.,141.5,0.));
#422=CARTESIAN_POINT('Origin',(-5.,147.,0.));
#423=CARTESIAN_POINT('',(-8.00000000000004,147.,5.));
#424=CARTESIAN_POINT('Origin',(-5.,147.,5.));
#425=CARTESIAN_POINT('',(-8.00000000000001,147.,0.));
#426=CARTESIAN_POINT('',(-8.00000000000001,147.,0.));
#427=CARTESIAN_POINT('Origin',(-5.,147.,0.));
#428=CARTESIAN_POINT('Origin',(-5.,5.,0.));
#429=CARTESIAN_POINT('',(-8.00000000000004,5.,5.));
#430=CARTESIAN_POINT('Origin',(-5.,5.,5.));
#431=CARTESIAN_POINT('',(-8.00000000000001,5.,0.));
#432=CARTESIAN_POINT('',(-8.00000000000001,5.,0.));
#433=CARTESIAN_POINT('Origin',(-5.,5.,0.));
#434=CARTESIAN_POINT('Origin',(-366.,147.,0.));
#435=CARTESIAN_POINT('',(-369.,147.,5.));
#436=CARTESIAN_POINT('Origin',(-366.,147.,5.));
#437=CARTESIAN_POINT('',(-369.,147.,0.));
#438=CARTESIAN_POINT('',(-369.,147.,0.));
#439=CARTESIAN_POINT('Origin',(-366.,147.,0.));
#440=CARTESIAN_POINT('Origin',(-366.,5.,0.));
#441=CARTESIAN_POINT('',(-369.,5.,5.));
#442=CARTESIAN_POINT('Origin',(-366.,5.,5.));
#443=CARTESIAN_POINT('',(-369.,5.,0.));
#444=CARTESIAN_POINT('',(-369.,5.,0.));
#445=CARTESIAN_POINT('Origin',(-366.,5.,0.));
#446=CARTESIAN_POINT('Origin',(0.,0.,0.));
#447=CARTESIAN_POINT('',(0.,152.,0.));
#448=CARTESIAN_POINT('',(0.,0.,0.));
#449=CARTESIAN_POINT('',(0.,152.,0.));
#450=CARTESIAN_POINT('',(0.,152.,5.));
#451=CARTESIAN_POINT('',(0.,152.,0.));
#452=CARTESIAN_POINT('',(0.,0.,5.));
#453=CARTESIAN_POINT('',(0.,152.,5.));
#454=CARTESIAN_POINT('',(0.,0.,0.));
#455=CARTESIAN_POINT('Origin',(-371.,0.,0.));
#456=CARTESIAN_POINT('',(-371.,0.,0.));
#457=CARTESIAN_POINT('',(0.,0.,0.));
#458=CARTESIAN_POINT('',(-371.,0.,5.));
#459=CARTESIAN_POINT('',(0.,0.,5.));
#460=CARTESIAN_POINT('',(-371.,0.,0.));
#461=CARTESIAN_POINT('Origin',(-371.,152.,0.));
#462=CARTESIAN_POINT('',(-371.,152.,0.));
#463=CARTESIAN_POINT('',(-371.,0.,0.));
#464=CARTESIAN_POINT('',(-371.,152.,5.));
#465=CARTESIAN_POINT('',(-371.,0.,5.));
#466=CARTESIAN_POINT('',(-371.,152.,0.));
#467=CARTESIAN_POINT('Origin',(0.,152.,0.));
#468=CARTESIAN_POINT('',(-371.,152.,0.));
#469=CARTESIAN_POINT('',(-371.,152.,5.));
#470=CARTESIAN_POINT('Origin',(-185.5,76.,5.));
#471=CARTESIAN_POINT('Origin',(-185.5,76.,0.));
#472=UNCERTAINTY_MEASURE_WITH_UNIT(LENGTH_MEASURE(0.01),#476,
'DISTANCE_ACCURACY_VALUE',
'Maximum model space distance between geometric entities at asserted c
onnectivities');
#473=UNCERTAINTY_MEASURE_WITH_UNIT(LENGTH_MEASURE(0.01),#476,
'DISTANCE_ACCURACY_VALUE',
'Maximum model space distance between geometric entities at asserted c
onnectivities');
#474=(
GEOMETRIC_REPRESENTATION_CONTEXT(3)
GLOBAL_UNCERTAINTY_ASSIGNED_CONTEXT((#472))
GLOBAL_UNIT_ASSIGNED_CONTEXT((#476,#478,#479))
REPRESENTATION_CONTEXT('','3D')
);
#475=(
GEOMETRIC_REPRESENTATION_CONTEXT(3)
GLOBAL_UNCERTAINTY_ASSIGNED_CONTEXT((#473))
GLOBAL_UNIT_ASSIGNED_CONTEXT((#476,#478,#479))
REPRESENTATION_CONTEXT('','3D')
);
#476=(
LENGTH_UNIT()
NAMED_UNIT(*)
SI_UNIT(.MILLI.,.METRE.)
);
#477=(
LENGTH_UNIT()
NAMED_UNIT(*)
SI_UNIT($,.METRE.)
);
#478=(
NAMED_UNIT(*)
PLANE_ANGLE_UNIT()
SI_UNIT($,.RADIAN.)
);
#479=(
NAMED_UNIT(*)
SI_UNIT($,.STERADIAN.)
SOLID_ANGLE_UNIT()
);
#480=SHAPE_DEFINITION_REPRESENTATION(#481,#482);
#481=PRODUCT_DEFINITION_SHAPE('',$,#484);
#482=SHAPE_REPRESENTATION('',(#300),#474);
#483=PRODUCT_DEFINITION_CONTEXT('part definition',#488,'design');
#484=PRODUCT_DEFINITION('2026-01-27-16-23-20-670','KeyboardBezel',#485,
#483);
#485=PRODUCT_DEFINITION_FORMATION('',$,#490);
#486=PRODUCT_RELATED_PRODUCT_CATEGORY('KeyboardBezel','KeyboardBezel',(#490));
#487=APPLICATION_PROTOCOL_DEFINITION('international standard',
'automotive_design',2009,#488);
#488=APPLICATION_CONTEXT(
'Core Data for Automotive Mechanical Design Process');
#489=PRODUCT_CONTEXT('part definition',#488,'mechanical');
#490=PRODUCT('2026-01-27-16-23-20-670','KeyboardBezel',$,(#489));
#491=PRESENTATION_STYLE_ASSIGNMENT((#492));
#492=SURFACE_STYLE_USAGE(.BOTH.,#493);
#493=SURFACE_SIDE_STYLE('',(#494));
#494=SURFACE_STYLE_FILL_AREA(#495);
#495=FILL_AREA_STYLE('Steel - Satin',(#496));
#496=FILL_AREA_STYLE_COLOUR('Steel - Satin',#497);
#497=COLOUR_RGB('Steel - Satin',0.627450980392157,0.627450980392157,0.627450980392157);
ENDSEC;
END-ISO-10303-21;
