ISO-10303-21;
HEADER;
/* Generated by software containing ST-Developer
 * from STEP Tools, Inc. (www.steptools.com) 
 */

FILE_DESCRIPTION(
/* description */ (''),
/* implementation_level */ '2;1');

FILE_NAME(
/* name */ 'KeyboardBottom.step',
/* time_stamp */ '2026-05-02T15:46:37-07:00',
/* author */ (''),
/* organization */ (''),
/* preprocessor_version */ 'ST-DEVELOPER v20.1',
/* originating_system */ 'Autodesk Translation Framework v15.8.0.0',
/* authorisation */ '');

FILE_SCHEMA (('AUTOMOTIVE_DESIGN { 1 0 10303 214 3 1 1 }'));
ENDSEC;

DATA;
#10=MECHANICAL_DESIGN_GEOMETRIC_PRESENTATION_REPRESENTATION('',(#13),#963);
#11=SHAPE_REPRESENTATION_RELATIONSHIP('SRR','None',#970,#12);
#12=ADVANCED_BREP_SHAPE_REPRESENTATION('',(#14),#962);
#13=STYLED_ITEM('',(#979),#14);
#14=MANIFOLD_SOLID_BREP('Body1',#567);
#15=FACE_BOUND('',#118,.T.);
#16=FACE_BOUND('',#119,.T.);
#17=FACE_BOUND('',#120,.T.);
#18=FACE_BOUND('',#121,.T.);
#19=FACE_BOUND('',#123,.T.);
#20=FACE_BOUND('',#124,.T.);
#21=FACE_BOUND('',#125,.T.);
#22=FACE_BOUND('',#126,.T.);
#23=FACE_BOUND('',#130,.T.);
#24=FACE_BOUND('',#132,.T.);
#25=FACE_BOUND('',#136,.T.);
#26=FACE_BOUND('',#138,.T.);
#27=FACE_BOUND('',#142,.T.);
#28=FACE_BOUND('',#144,.T.);
#29=FACE_BOUND('',#148,.T.);
#30=FACE_BOUND('',#150,.T.);
#31=CIRCLE('',#589,0.300000000000003);
#32=CIRCLE('',#590,0.300000000000003);
#33=CIRCLE('',#592,0.300000000000011);
#34=CIRCLE('',#593,0.300000000000011);
#35=CIRCLE('',#595,0.300000000000004);
#36=CIRCLE('',#596,0.300000000000004);
#37=CIRCLE('',#598,0.300000000000004);
#38=CIRCLE('',#599,0.300000000000004);
#39=CIRCLE('',#606,0.300000000000011);
#40=CIRCLE('',#607,0.300000000000004);
#41=CIRCLE('',#608,0.300000000000004);
#42=CIRCLE('',#609,0.300000000000003);
#43=CIRCLE('',#612,0.170000000000016);
#44=CIRCLE('',#613,0.170000000000016);
#45=CIRCLE('',#615,0.300000000000004);
#46=CIRCLE('',#619,0.170000000000016);
#47=CIRCLE('',#620,0.170000000000016);
#48=CIRCLE('',#622,0.300000000000004);
#49=CIRCLE('',#626,0.169999999999999);
#50=CIRCLE('',#627,0.169999999999999);
#51=CIRCLE('',#629,0.300000000000011);
#52=CIRCLE('',#633,0.170000000000001);
#53=CIRCLE('',#634,0.170000000000001);
#54=CIRCLE('',#636,0.300000000000003);
#55=CYLINDRICAL_SURFACE('',#588,0.300000000000003);
#56=CYLINDRICAL_SURFACE('',#591,0.300000000000011);
#57=CYLINDRICAL_SURFACE('',#594,0.300000000000004);
#58=CYLINDRICAL_SURFACE('',#597,0.300000000000004);
#59=CYLINDRICAL_SURFACE('',#611,0.170000000000016);
#60=CYLINDRICAL_SURFACE('',#614,0.300000000000004);
#61=CYLINDRICAL_SURFACE('',#618,0.170000000000016);
#62=CYLINDRICAL_SURFACE('',#621,0.300000000000004);
#63=CYLINDRICAL_SURFACE('',#625,0.169999999999999);
#64=CYLINDRICAL_SURFACE('',#628,0.300000000000011);
#65=CYLINDRICAL_SURFACE('',#632,0.170000000000001);
#66=CYLINDRICAL_SURFACE('',#635,0.300000000000003);
#67=FACE_OUTER_BOUND('',#101,.T.);
#68=FACE_OUTER_BOUND('',#102,.T.);
#69=FACE_OUTER_BOUND('',#103,.T.);
#70=FACE_OUTER_BOUND('',#104,.T.);
#71=FACE_OUTER_BOUND('',#105,.T.);
#72=FACE_OUTER_BOUND('',#106,.T.);
#73=FACE_OUTER_BOUND('',#107,.T.);
#74=FACE_OUTER_BOUND('',#108,.T.);
#75=FACE_OUTER_BOUND('',#109,.T.);
#76=FACE_OUTER_BOUND('',#110,.T.);
#77=FACE_OUTER_BOUND('',#111,.T.);
#78=FACE_OUTER_BOUND('',#112,.T.);
#79=FACE_OUTER_BOUND('',#113,.T.);
#80=FACE_OUTER_BOUND('',#114,.T.);
#81=FACE_OUTER_BOUND('',#115,.T.);
#82=FACE_OUTER_BOUND('',#116,.T.);
#83=FACE_OUTER_BOUND('',#117,.T.);
#84=FACE_OUTER_BOUND('',#122,.T.);
#85=FACE_OUTER_BOUND('',#127,.T.);
#86=FACE_OUTER_BOUND('',#128,.T.);
#87=FACE_OUTER_BOUND('',#129,.T.);
#88=FACE_OUTER_BOUND('',#131,.T.);
#89=FACE_OUTER_BOUND('',#133,.T.);
#90=FACE_OUTER_BOUND('',#134,.T.);
#91=FACE_OUTER_BOUND('',#135,.T.);
#92=FACE_OUTER_BOUND('',#137,.T.);
#93=FACE_OUTER_BOUND('',#139,.T.);
#94=FACE_OUTER_BOUND('',#140,.T.);
#95=FACE_OUTER_BOUND('',#141,.T.);
#96=FACE_OUTER_BOUND('',#143,.T.);
#97=FACE_OUTER_BOUND('',#145,.T.);
#98=FACE_OUTER_BOUND('',#146,.T.);
#99=FACE_OUTER_BOUND('',#147,.T.);
#100=FACE_OUTER_BOUND('',#149,.T.);
#101=EDGE_LOOP('',(#367,#368,#369,#370));
#102=EDGE_LOOP('',(#371,#372,#373,#374));
#103=EDGE_LOOP('',(#375,#376,#377,#378));
#104=EDGE_LOOP('',(#379,#380,#381,#382,#383,#384,#385,#386));
#105=EDGE_LOOP('',(#387,#388,#389,#390));
#106=EDGE_LOOP('',(#391,#392,#393,#394));
#107=EDGE_LOOP('',(#395,#396,#397,#398));
#108=EDGE_LOOP('',(#399,#400,#401,#402));
#109=EDGE_LOOP('',(#403,#404,#405,#406));
#110=EDGE_LOOP('',(#407,#408,#409,#410));
#111=EDGE_LOOP('',(#411,#412,#413,#414));
#112=EDGE_LOOP('',(#415,#416,#417,#418));
#113=EDGE_LOOP('',(#419,#420,#421,#422));
#114=EDGE_LOOP('',(#423,#424,#425,#426,#427,#428,#429,#430));
#115=EDGE_LOOP('',(#431,#432,#433,#434));
#116=EDGE_LOOP('',(#435,#436,#437,#438));
#117=EDGE_LOOP('',(#439,#440,#441,#442,#443,#444,#445,#446,#447,#448,#449,
#450));
#118=EDGE_LOOP('',(#451));
#119=EDGE_LOOP('',(#452));
#120=EDGE_LOOP('',(#453));
#121=EDGE_LOOP('',(#454));
#122=EDGE_LOOP('',(#455,#456,#457,#458));
#123=EDGE_LOOP('',(#459));
#124=EDGE_LOOP('',(#460));
#125=EDGE_LOOP('',(#461));
#126=EDGE_LOOP('',(#462));
#127=EDGE_LOOP('',(#463,#464,#465,#466));
#128=EDGE_LOOP('',(#467,#468,#469,#470));
#129=EDGE_LOOP('',(#471));
#130=EDGE_LOOP('',(#472));
#131=EDGE_LOOP('',(#473));
#132=EDGE_LOOP('',(#474));
#133=EDGE_LOOP('',(#475,#476,#477,#478));
#134=EDGE_LOOP('',(#479,#480,#481,#482));
#135=EDGE_LOOP('',(#483));
#136=EDGE_LOOP('',(#484));
#137=EDGE_LOOP('',(#485));
#138=EDGE_LOOP('',(#486));
#139=EDGE_LOOP('',(#487,#488,#489,#490));
#140=EDGE_LOOP('',(#491,#492,#493,#494));
#141=EDGE_LOOP('',(#495));
#142=EDGE_LOOP('',(#496));
#143=EDGE_LOOP('',(#497));
#144=EDGE_LOOP('',(#498));
#145=EDGE_LOOP('',(#499,#500,#501,#502));
#146=EDGE_LOOP('',(#503,#504,#505,#506));
#147=EDGE_LOOP('',(#507));
#148=EDGE_LOOP('',(#508));
#149=EDGE_LOOP('',(#509));
#150=EDGE_LOOP('',(#510));
#151=LINE('',#809,#199);
#152=LINE('',#811,#200);
#153=LINE('',#813,#201);
#154=LINE('',#814,#202);
#155=LINE('',#817,#203);
#156=LINE('',#819,#204);
#157=LINE('',#820,#205);
#158=LINE('',#823,#206);
#159=LINE('',#825,#207);
#160=LINE('',#826,#208);
#161=LINE('',#829,#209);
#162=LINE('',#831,#210);
#163=LINE('',#833,#211);
#164=LINE('',#835,#212);
#165=LINE('',#836,#213);
#166=LINE('',#839,#214);
#167=LINE('',#841,#215);
#168=LINE('',#842,#216);
#169=LINE('',#845,#217);
#170=LINE('',#846,#218);
#171=LINE('',#849,#219);
#172=LINE('',#850,#220);
#173=LINE('',#855,#221);
#174=LINE('',#861,#222);
#175=LINE('',#867,#223);
#176=LINE('',#873,#224);
#177=LINE('',#876,#225);
#178=LINE('',#880,#226);
#179=LINE('',#882,#227);
#180=LINE('',#884,#228);
#181=LINE('',#885,#229);
#182=LINE('',#888,#230);
#183=LINE('',#890,#231);
#184=LINE('',#891,#232);
#185=LINE('',#892,#233);
#186=LINE('',#895,#234);
#187=LINE('',#897,#235);
#188=LINE('',#898,#236);
#189=LINE('',#900,#237);
#190=LINE('',#901,#238);
#191=LINE('',#916,#239);
#192=LINE('',#921,#240);
#193=LINE('',#928,#241);
#194=LINE('',#933,#242);
#195=LINE('',#940,#243);
#196=LINE('',#945,#244);
#197=LINE('',#952,#245);
#198=LINE('',#957,#246);
#199=VECTOR('',#643,1.);
#200=VECTOR('',#644,1.);
#201=VECTOR('',#645,1.);
#202=VECTOR('',#646,1.);
#203=VECTOR('',#649,1.);
#204=VECTOR('',#650,1.);
#205=VECTOR('',#651,1.);
#206=VECTOR('',#654,1.);
#207=VECTOR('',#655,1.);
#208=VECTOR('',#656,1.);
#209=VECTOR('',#659,1.);
#210=VECTOR('',#660,1.);
#211=VECTOR('',#661,1.);
#212=VECTOR('',#662,1.);
#213=VECTOR('',#663,1.);
#214=VECTOR('',#666,1.);
#215=VECTOR('',#667,1.);
#216=VECTOR('',#668,1.);
#217=VECTOR('',#671,1.);
#218=VECTOR('',#672,1.);
#219=VECTOR('',#675,1.);
#220=VECTOR('',#676,1.);
#221=VECTOR('',#681,0.300000000000003);
#222=VECTOR('',#688,0.300000000000011);
#223=VECTOR('',#695,0.300000000000004);
#224=VECTOR('',#702,0.300000000000004);
#225=VECTOR('',#707,1.);
#226=VECTOR('',#710,1.);
#227=VECTOR('',#711,1.);
#228=VECTOR('',#712,1.);
#229=VECTOR('',#713,1.);
#230=VECTOR('',#716,1.);
#231=VECTOR('',#717,1.);
#232=VECTOR('',#718,1.);
#233=VECTOR('',#719,1.);
#234=VECTOR('',#722,1.);
#235=VECTOR('',#723,1.);
#236=VECTOR('',#724,1.);
#237=VECTOR('',#727,1.);
#238=VECTOR('',#728,1.);
#239=VECTOR('',#745,0.170000000000016);
#240=VECTOR('',#752,0.300000000000004);
#241=VECTOR('',#761,0.170000000000016);
#242=VECTOR('',#768,0.300000000000004);
#243=VECTOR('',#777,0.169999999999999);
#244=VECTOR('',#784,0.300000000000011);
#245=VECTOR('',#793,0.170000000000001);
#246=VECTOR('',#800,0.300000000000003);
#247=VERTEX_POINT('',#807);
#248=VERTEX_POINT('',#808);
#249=VERTEX_POINT('',#810);
#250=VERTEX_POINT('',#812);
#251=VERTEX_POINT('',#816);
#252=VERTEX_POINT('',#818);
#253=VERTEX_POINT('',#822);
#254=VERTEX_POINT('',#824);
#255=VERTEX_POINT('',#828);
#256=VERTEX_POINT('',#830);
#257=VERTEX_POINT('',#832);
#258=VERTEX_POINT('',#834);
#259=VERTEX_POINT('',#838);
#260=VERTEX_POINT('',#840);
#261=VERTEX_POINT('',#844);
#262=VERTEX_POINT('',#848);
#263=VERTEX_POINT('',#852);
#264=VERTEX_POINT('',#854);
#265=VERTEX_POINT('',#858);
#266=VERTEX_POINT('',#860);
#267=VERTEX_POINT('',#864);
#268=VERTEX_POINT('',#866);
#269=VERTEX_POINT('',#870);
#270=VERTEX_POINT('',#872);
#271=VERTEX_POINT('',#878);
#272=VERTEX_POINT('',#879);
#273=VERTEX_POINT('',#881);
#274=VERTEX_POINT('',#883);
#275=VERTEX_POINT('',#887);
#276=VERTEX_POINT('',#889);
#277=VERTEX_POINT('',#894);
#278=VERTEX_POINT('',#896);
#279=VERTEX_POINT('',#903);
#280=VERTEX_POINT('',#905);
#281=VERTEX_POINT('',#907);
#282=VERTEX_POINT('',#909);
#283=VERTEX_POINT('',#913);
#284=VERTEX_POINT('',#915);
#285=VERTEX_POINT('',#919);
#286=VERTEX_POINT('',#925);
#287=VERTEX_POINT('',#927);
#288=VERTEX_POINT('',#931);
#289=VERTEX_POINT('',#937);
#290=VERTEX_POINT('',#939);
#291=VERTEX_POINT('',#943);
#292=VERTEX_POINT('',#949);
#293=VERTEX_POINT('',#951);
#294=VERTEX_POINT('',#955);
#295=EDGE_CURVE('',#247,#248,#151,.T.);
#296=EDGE_CURVE('',#249,#247,#152,.T.);
#297=EDGE_CURVE('',#250,#249,#153,.T.);
#298=EDGE_CURVE('',#248,#250,#154,.T.);
#299=EDGE_CURVE('',#248,#251,#155,.T.);
#300=EDGE_CURVE('',#252,#250,#156,.T.);
#301=EDGE_CURVE('',#251,#252,#157,.T.);
#302=EDGE_CURVE('',#253,#247,#158,.T.);
#303=EDGE_CURVE('',#254,#253,#159,.T.);
#304=EDGE_CURVE('',#249,#254,#160,.T.);
#305=EDGE_CURVE('',#255,#251,#161,.T.);
#306=EDGE_CURVE('',#256,#255,#162,.T.);
#307=EDGE_CURVE('',#256,#257,#163,.T.);
#308=EDGE_CURVE('',#257,#258,#164,.T.);
#309=EDGE_CURVE('',#253,#258,#165,.T.);
#310=EDGE_CURVE('',#259,#256,#166,.T.);
#311=EDGE_CURVE('',#260,#259,#167,.T.);
#312=EDGE_CURVE('',#257,#260,#168,.T.);
#313=EDGE_CURVE('',#260,#261,#169,.T.);
#314=EDGE_CURVE('',#258,#261,#170,.T.);
#315=EDGE_CURVE('',#259,#262,#171,.T.);
#316=EDGE_CURVE('',#261,#262,#172,.T.);
#317=EDGE_CURVE('',#263,#263,#31,.T.);
#318=EDGE_CURVE('',#263,#264,#173,.T.);
#319=EDGE_CURVE('',#264,#264,#32,.T.);
#320=EDGE_CURVE('',#265,#265,#33,.T.);
#321=EDGE_CURVE('',#265,#266,#174,.T.);
#322=EDGE_CURVE('',#266,#266,#34,.T.);
#323=EDGE_CURVE('',#267,#267,#35,.T.);
#324=EDGE_CURVE('',#267,#268,#175,.T.);
#325=EDGE_CURVE('',#268,#268,#36,.T.);
#326=EDGE_CURVE('',#269,#269,#37,.T.);
#327=EDGE_CURVE('',#269,#270,#176,.T.);
#328=EDGE_CURVE('',#270,#270,#38,.T.);
#329=EDGE_CURVE('',#262,#255,#177,.T.);
#330=EDGE_CURVE('',#271,#272,#178,.T.);
#331=EDGE_CURVE('',#271,#273,#179,.T.);
#332=EDGE_CURVE('',#274,#273,#180,.T.);
#333=EDGE_CURVE('',#272,#274,#181,.T.);
#334=EDGE_CURVE('',#275,#254,#182,.T.);
#335=EDGE_CURVE('',#276,#275,#183,.T.);
#336=EDGE_CURVE('',#272,#276,#184,.T.);
#337=EDGE_CURVE('',#252,#274,#185,.T.);
#338=EDGE_CURVE('',#276,#277,#186,.T.);
#339=EDGE_CURVE('',#278,#275,#187,.T.);
#340=EDGE_CURVE('',#277,#278,#188,.T.);
#341=EDGE_CURVE('',#277,#271,#189,.T.);
#342=EDGE_CURVE('',#273,#278,#190,.T.);
#343=EDGE_CURVE('',#279,#279,#39,.T.);
#344=EDGE_CURVE('',#280,#280,#40,.T.);
#345=EDGE_CURVE('',#281,#281,#41,.T.);
#346=EDGE_CURVE('',#282,#282,#42,.T.);
#347=EDGE_CURVE('',#283,#283,#43,.T.);
#348=EDGE_CURVE('',#283,#284,#191,.T.);
#349=EDGE_CURVE('',#284,#284,#44,.T.);
#350=EDGE_CURVE('',#285,#285,#45,.T.);
#351=EDGE_CURVE('',#285,#280,#192,.T.);
#352=EDGE_CURVE('',#286,#286,#46,.T.);
#353=EDGE_CURVE('',#286,#287,#193,.T.);
#354=EDGE_CURVE('',#287,#287,#47,.T.);
#355=EDGE_CURVE('',#288,#288,#48,.T.);
#356=EDGE_CURVE('',#288,#281,#194,.T.);
#357=EDGE_CURVE('',#289,#289,#49,.T.);
#358=EDGE_CURVE('',#289,#290,#195,.T.);
#359=EDGE_CURVE('',#290,#290,#50,.T.);
#360=EDGE_CURVE('',#291,#291,#51,.T.);
#361=EDGE_CURVE('',#291,#279,#196,.T.);
#362=EDGE_CURVE('',#292,#292,#52,.T.);
#363=EDGE_CURVE('',#292,#293,#197,.T.);
#364=EDGE_CURVE('',#293,#293,#53,.T.);
#365=EDGE_CURVE('',#294,#294,#54,.T.);
#366=EDGE_CURVE('',#294,#282,#198,.T.);
#367=ORIENTED_EDGE('',*,*,#295,.F.);
#368=ORIENTED_EDGE('',*,*,#296,.F.);
#369=ORIENTED_EDGE('',*,*,#297,.F.);
#370=ORIENTED_EDGE('',*,*,#298,.F.);
#371=ORIENTED_EDGE('',*,*,#299,.F.);
#372=ORIENTED_EDGE('',*,*,#298,.T.);
#373=ORIENTED_EDGE('',*,*,#300,.F.);
#374=ORIENTED_EDGE('',*,*,#301,.F.);
#375=ORIENTED_EDGE('',*,*,#302,.F.);
#376=ORIENTED_EDGE('',*,*,#303,.F.);
#377=ORIENTED_EDGE('',*,*,#304,.F.);
#378=ORIENTED_EDGE('',*,*,#296,.T.);
#379=ORIENTED_EDGE('',*,*,#302,.T.);
#380=ORIENTED_EDGE('',*,*,#295,.T.);
#381=ORIENTED_EDGE('',*,*,#299,.T.);
#382=ORIENTED_EDGE('',*,*,#305,.F.);
#383=ORIENTED_EDGE('',*,*,#306,.F.);
#384=ORIENTED_EDGE('',*,*,#307,.T.);
#385=ORIENTED_EDGE('',*,*,#308,.T.);
#386=ORIENTED_EDGE('',*,*,#309,.F.);
#387=ORIENTED_EDGE('',*,*,#310,.F.);
#388=ORIENTED_EDGE('',*,*,#311,.F.);
#389=ORIENTED_EDGE('',*,*,#312,.F.);
#390=ORIENTED_EDGE('',*,*,#307,.F.);
#391=ORIENTED_EDGE('',*,*,#312,.T.);
#392=ORIENTED_EDGE('',*,*,#313,.T.);
#393=ORIENTED_EDGE('',*,*,#314,.F.);
#394=ORIENTED_EDGE('',*,*,#308,.F.);
#395=ORIENTED_EDGE('',*,*,#311,.T.);
#396=ORIENTED_EDGE('',*,*,#315,.T.);
#397=ORIENTED_EDGE('',*,*,#316,.F.);
#398=ORIENTED_EDGE('',*,*,#313,.F.);
#399=ORIENTED_EDGE('',*,*,#317,.T.);
#400=ORIENTED_EDGE('',*,*,#318,.T.);
#401=ORIENTED_EDGE('',*,*,#319,.T.);
#402=ORIENTED_EDGE('',*,*,#318,.F.);
#403=ORIENTED_EDGE('',*,*,#320,.T.);
#404=ORIENTED_EDGE('',*,*,#321,.T.);
#405=ORIENTED_EDGE('',*,*,#322,.T.);
#406=ORIENTED_EDGE('',*,*,#321,.F.);
#407=ORIENTED_EDGE('',*,*,#323,.T.);
#408=ORIENTED_EDGE('',*,*,#324,.T.);
#409=ORIENTED_EDGE('',*,*,#325,.T.);
#410=ORIENTED_EDGE('',*,*,#324,.F.);
#411=ORIENTED_EDGE('',*,*,#326,.T.);
#412=ORIENTED_EDGE('',*,*,#327,.T.);
#413=ORIENTED_EDGE('',*,*,#328,.T.);
#414=ORIENTED_EDGE('',*,*,#327,.F.);
#415=ORIENTED_EDGE('',*,*,#310,.T.);
#416=ORIENTED_EDGE('',*,*,#306,.T.);
#417=ORIENTED_EDGE('',*,*,#329,.F.);
#418=ORIENTED_EDGE('',*,*,#315,.F.);
#419=ORIENTED_EDGE('',*,*,#330,.F.);
#420=ORIENTED_EDGE('',*,*,#331,.T.);
#421=ORIENTED_EDGE('',*,*,#332,.F.);
#422=ORIENTED_EDGE('',*,*,#333,.F.);
#423=ORIENTED_EDGE('',*,*,#304,.T.);
#424=ORIENTED_EDGE('',*,*,#334,.F.);
#425=ORIENTED_EDGE('',*,*,#335,.F.);
#426=ORIENTED_EDGE('',*,*,#336,.F.);
#427=ORIENTED_EDGE('',*,*,#333,.T.);
#428=ORIENTED_EDGE('',*,*,#337,.F.);
#429=ORIENTED_EDGE('',*,*,#300,.T.);
#430=ORIENTED_EDGE('',*,*,#297,.T.);
#431=ORIENTED_EDGE('',*,*,#338,.F.);
#432=ORIENTED_EDGE('',*,*,#335,.T.);
#433=ORIENTED_EDGE('',*,*,#339,.F.);
#434=ORIENTED_EDGE('',*,*,#340,.F.);
#435=ORIENTED_EDGE('',*,*,#341,.F.);
#436=ORIENTED_EDGE('',*,*,#340,.T.);
#437=ORIENTED_EDGE('',*,*,#342,.F.);
#438=ORIENTED_EDGE('',*,*,#331,.F.);
#439=ORIENTED_EDGE('',*,*,#303,.T.);
#440=ORIENTED_EDGE('',*,*,#309,.T.);
#441=ORIENTED_EDGE('',*,*,#314,.T.);
#442=ORIENTED_EDGE('',*,*,#316,.T.);
#443=ORIENTED_EDGE('',*,*,#329,.T.);
#444=ORIENTED_EDGE('',*,*,#305,.T.);
#445=ORIENTED_EDGE('',*,*,#301,.T.);
#446=ORIENTED_EDGE('',*,*,#337,.T.);
#447=ORIENTED_EDGE('',*,*,#332,.T.);
#448=ORIENTED_EDGE('',*,*,#342,.T.);
#449=ORIENTED_EDGE('',*,*,#339,.T.);
#450=ORIENTED_EDGE('',*,*,#334,.T.);
#451=ORIENTED_EDGE('',*,*,#343,.F.);
#452=ORIENTED_EDGE('',*,*,#344,.F.);
#453=ORIENTED_EDGE('',*,*,#345,.F.);
#454=ORIENTED_EDGE('',*,*,#346,.F.);
#455=ORIENTED_EDGE('',*,*,#341,.T.);
#456=ORIENTED_EDGE('',*,*,#330,.T.);
#457=ORIENTED_EDGE('',*,*,#336,.T.);
#458=ORIENTED_EDGE('',*,*,#338,.T.);
#459=ORIENTED_EDGE('',*,*,#322,.F.);
#460=ORIENTED_EDGE('',*,*,#328,.F.);
#461=ORIENTED_EDGE('',*,*,#325,.F.);
#462=ORIENTED_EDGE('',*,*,#319,.F.);
#463=ORIENTED_EDGE('',*,*,#347,.F.);
#464=ORIENTED_EDGE('',*,*,#348,.T.);
#465=ORIENTED_EDGE('',*,*,#349,.T.);
#466=ORIENTED_EDGE('',*,*,#348,.F.);
#467=ORIENTED_EDGE('',*,*,#350,.F.);
#468=ORIENTED_EDGE('',*,*,#351,.T.);
#469=ORIENTED_EDGE('',*,*,#344,.T.);
#470=ORIENTED_EDGE('',*,*,#351,.F.);
#471=ORIENTED_EDGE('',*,*,#350,.T.);
#472=ORIENTED_EDGE('',*,*,#347,.T.);
#473=ORIENTED_EDGE('',*,*,#326,.F.);
#474=ORIENTED_EDGE('',*,*,#349,.F.);
#475=ORIENTED_EDGE('',*,*,#352,.F.);
#476=ORIENTED_EDGE('',*,*,#353,.T.);
#477=ORIENTED_EDGE('',*,*,#354,.T.);
#478=ORIENTED_EDGE('',*,*,#353,.F.);
#479=ORIENTED_EDGE('',*,*,#355,.F.);
#480=ORIENTED_EDGE('',*,*,#356,.T.);
#481=ORIENTED_EDGE('',*,*,#345,.T.);
#482=ORIENTED_EDGE('',*,*,#356,.F.);
#483=ORIENTED_EDGE('',*,*,#355,.T.);
#484=ORIENTED_EDGE('',*,*,#352,.T.);
#485=ORIENTED_EDGE('',*,*,#323,.F.);
#486=ORIENTED_EDGE('',*,*,#354,.F.);
#487=ORIENTED_EDGE('',*,*,#357,.F.);
#488=ORIENTED_EDGE('',*,*,#358,.T.);
#489=ORIENTED_EDGE('',*,*,#359,.T.);
#490=ORIENTED_EDGE('',*,*,#358,.F.);
#491=ORIENTED_EDGE('',*,*,#360,.F.);
#492=ORIENTED_EDGE('',*,*,#361,.T.);
#493=ORIENTED_EDGE('',*,*,#343,.T.);
#494=ORIENTED_EDGE('',*,*,#361,.F.);
#495=ORIENTED_EDGE('',*,*,#360,.T.);
#496=ORIENTED_EDGE('',*,*,#357,.T.);
#497=ORIENTED_EDGE('',*,*,#320,.F.);
#498=ORIENTED_EDGE('',*,*,#359,.F.);
#499=ORIENTED_EDGE('',*,*,#362,.F.);
#500=ORIENTED_EDGE('',*,*,#363,.T.);
#501=ORIENTED_EDGE('',*,*,#364,.T.);
#502=ORIENTED_EDGE('',*,*,#363,.F.);
#503=ORIENTED_EDGE('',*,*,#365,.F.);
#504=ORIENTED_EDGE('',*,*,#366,.T.);
#505=ORIENTED_EDGE('',*,*,#346,.T.);
#506=ORIENTED_EDGE('',*,*,#366,.F.);
#507=ORIENTED_EDGE('',*,*,#365,.T.);
#508=ORIENTED_EDGE('',*,*,#362,.T.);
#509=ORIENTED_EDGE('',*,*,#317,.F.);
#510=ORIENTED_EDGE('',*,*,#364,.F.);
#511=PLANE('',#581);
#512=PLANE('',#582);
#513=PLANE('',#583);
#514=PLANE('',#584);
#515=PLANE('',#585);
#516=PLANE('',#586);
#517=PLANE('',#587);
#518=PLANE('',#600);
#519=PLANE('',#601);
#520=PLANE('',#602);
#521=PLANE('',#603);
#522=PLANE('',#604);
#523=PLANE('',#605);
#524=PLANE('',#610);
#525=PLANE('',#616);
#526=PLANE('',#617);
#527=PLANE('',#623);
#528=PLANE('',#624);
#529=PLANE('',#630);
#530=PLANE('',#631);
#531=PLANE('',#637);
#532=PLANE('',#638);
#533=ADVANCED_FACE('',(#67),#511,.F.);
#534=ADVANCED_FACE('',(#68),#512,.F.);
#535=ADVANCED_FACE('',(#69),#513,.F.);
#536=ADVANCED_FACE('',(#70),#514,.T.);
#537=ADVANCED_FACE('',(#71),#515,.T.);
#538=ADVANCED_FACE('',(#72),#516,.T.);
#539=ADVANCED_FACE('',(#73),#517,.T.);
#540=ADVANCED_FACE('',(#74),#55,.F.);
#541=ADVANCED_FACE('',(#75),#56,.F.);
#542=ADVANCED_FACE('',(#76),#57,.F.);
#543=ADVANCED_FACE('',(#77),#58,.F.);
#544=ADVANCED_FACE('',(#78),#518,.T.);
#545=ADVANCED_FACE('',(#79),#519,.T.);
#546=ADVANCED_FACE('',(#80),#520,.T.);
#547=ADVANCED_FACE('',(#81),#521,.T.);
#548=ADVANCED_FACE('',(#82),#522,.T.);
#549=ADVANCED_FACE('',(#83,#15,#16,#17,#18),#523,.T.);
#550=ADVANCED_FACE('',(#84,#19,#20,#21,#22),#524,.F.);
#551=ADVANCED_FACE('',(#85),#59,.F.);
#552=ADVANCED_FACE('',(#86),#60,.T.);
#553=ADVANCED_FACE('',(#87,#23),#525,.T.);
#554=ADVANCED_FACE('',(#88,#24),#526,.F.);
#555=ADVANCED_FACE('',(#89),#61,.F.);
#556=ADVANCED_FACE('',(#90),#62,.T.);
#557=ADVANCED_FACE('',(#91,#25),#527,.T.);
#558=ADVANCED_FACE('',(#92,#26),#528,.F.);
#559=ADVANCED_FACE('',(#93),#63,.F.);
#560=ADVANCED_FACE('',(#94),#64,.T.);
#561=ADVANCED_FACE('',(#95,#27),#529,.T.);
#562=ADVANCED_FACE('',(#96,#28),#530,.F.);
#563=ADVANCED_FACE('',(#97),#65,.F.);
#564=ADVANCED_FACE('',(#98),#66,.T.);
#565=ADVANCED_FACE('',(#99,#29),#531,.T.);
#566=ADVANCED_FACE('',(#100,#30),#532,.F.);
#567=CLOSED_SHELL('',(#533,#534,#535,#536,#537,#538,#539,#540,#541,#542,
#543,#544,#545,#546,#547,#548,#549,#550,#551,#552,#553,#554,#555,#556,#557,
#558,#559,#560,#561,#562,#563,#564,#565,#566));
#568=DERIVED_UNIT_ELEMENT(#570,1.);
#569=DERIVED_UNIT_ELEMENT(#965,-3.);
#570=(
MASS_UNIT()
NAMED_UNIT(*)
SI_UNIT(.KILO.,.GRAM.)
);
#571=DERIVED_UNIT((#568,#569));
#572=MEASURE_REPRESENTATION_ITEM('density measure',
POSITIVE_RATIO_MEASURE(7850.),#571);
#573=PROPERTY_DEFINITION_REPRESENTATION(#578,#575);
#574=PROPERTY_DEFINITION_REPRESENTATION(#579,#576);
#575=REPRESENTATION('material name',(#577),#962);
#576=REPRESENTATION('density',(#572),#962);
#577=DESCRIPTIVE_REPRESENTATION_ITEM('Steel','Steel');
#578=PROPERTY_DEFINITION('material property','material name',#972);
#579=PROPERTY_DEFINITION('material property','density of part',#972);
#580=AXIS2_PLACEMENT_3D('',#805,#639,#640);
#581=AXIS2_PLACEMENT_3D('',#806,#641,#642);
#582=AXIS2_PLACEMENT_3D('',#815,#647,#648);
#583=AXIS2_PLACEMENT_3D('',#821,#652,#653);
#584=AXIS2_PLACEMENT_3D('',#827,#657,#658);
#585=AXIS2_PLACEMENT_3D('',#837,#664,#665);
#586=AXIS2_PLACEMENT_3D('',#843,#669,#670);
#587=AXIS2_PLACEMENT_3D('',#847,#673,#674);
#588=AXIS2_PLACEMENT_3D('',#851,#677,#678);
#589=AXIS2_PLACEMENT_3D('',#853,#679,#680);
#590=AXIS2_PLACEMENT_3D('',#856,#682,#683);
#591=AXIS2_PLACEMENT_3D('',#857,#684,#685);
#592=AXIS2_PLACEMENT_3D('',#859,#686,#687);
#593=AXIS2_PLACEMENT_3D('',#862,#689,#690);
#594=AXIS2_PLACEMENT_3D('',#863,#691,#692);
#595=AXIS2_PLACEMENT_3D('',#865,#693,#694);
#596=AXIS2_PLACEMENT_3D('',#868,#696,#697);
#597=AXIS2_PLACEMENT_3D('',#869,#698,#699);
#598=AXIS2_PLACEMENT_3D('',#871,#700,#701);
#599=AXIS2_PLACEMENT_3D('',#874,#703,#704);
#600=AXIS2_PLACEMENT_3D('',#875,#705,#706);
#601=AXIS2_PLACEMENT_3D('',#877,#708,#709);
#602=AXIS2_PLACEMENT_3D('',#886,#714,#715);
#603=AXIS2_PLACEMENT_3D('',#893,#720,#721);
#604=AXIS2_PLACEMENT_3D('',#899,#725,#726);
#605=AXIS2_PLACEMENT_3D('',#902,#729,#730);
#606=AXIS2_PLACEMENT_3D('',#904,#731,#732);
#607=AXIS2_PLACEMENT_3D('',#906,#733,#734);
#608=AXIS2_PLACEMENT_3D('',#908,#735,#736);
#609=AXIS2_PLACEMENT_3D('',#910,#737,#738);
#610=AXIS2_PLACEMENT_3D('',#911,#739,#740);
#611=AXIS2_PLACEMENT_3D('',#912,#741,#742);
#612=AXIS2_PLACEMENT_3D('',#914,#743,#744);
#613=AXIS2_PLACEMENT_3D('',#917,#746,#747);
#614=AXIS2_PLACEMENT_3D('',#918,#748,#749);
#615=AXIS2_PLACEMENT_3D('',#920,#750,#751);
#616=AXIS2_PLACEMENT_3D('',#922,#753,#754);
#617=AXIS2_PLACEMENT_3D('',#923,#755,#756);
#618=AXIS2_PLACEMENT_3D('',#924,#757,#758);
#619=AXIS2_PLACEMENT_3D('',#926,#759,#760);
#620=AXIS2_PLACEMENT_3D('',#929,#762,#763);
#621=AXIS2_PLACEMENT_3D('',#930,#764,#765);
#622=AXIS2_PLACEMENT_3D('',#932,#766,#767);
#623=AXIS2_PLACEMENT_3D('',#934,#769,#770);
#624=AXIS2_PLACEMENT_3D('',#935,#771,#772);
#625=AXIS2_PLACEMENT_3D('',#936,#773,#774);
#626=AXIS2_PLACEMENT_3D('',#938,#775,#776);
#627=AXIS2_PLACEMENT_3D('',#941,#778,#779);
#628=AXIS2_PLACEMENT_3D('',#942,#780,#781);
#629=AXIS2_PLACEMENT_3D('',#944,#782,#783);
#630=AXIS2_PLACEMENT_3D('',#946,#785,#786);
#631=AXIS2_PLACEMENT_3D('',#947,#787,#788);
#632=AXIS2_PLACEMENT_3D('',#948,#789,#790);
#633=AXIS2_PLACEMENT_3D('',#950,#791,#792);
#634=AXIS2_PLACEMENT_3D('',#953,#794,#795);
#635=AXIS2_PLACEMENT_3D('',#954,#796,#797);
#636=AXIS2_PLACEMENT_3D('',#956,#798,#799);
#637=AXIS2_PLACEMENT_3D('',#958,#801,#802);
#638=AXIS2_PLACEMENT_3D('',#959,#803,#804);
#639=DIRECTION('axis',(0.,0.,1.));
#640=DIRECTION('refdir',(1.,0.,0.));
#641=DIRECTION('center_axis',(0.,0.,-1.));
#642=DIRECTION('ref_axis',(-1.,0.,0.));
#643=DIRECTION('',(-1.,0.,0.));
#644=DIRECTION('',(0.,-1.,0.));
#645=DIRECTION('',(1.,0.,0.));
#646=DIRECTION('',(0.,1.,0.));
#647=DIRECTION('center_axis',(-1.,0.,0.));
#648=DIRECTION('ref_axis',(0.,1.,0.));
#649=DIRECTION('',(0.,0.,1.));
#650=DIRECTION('',(0.,0.,-1.));
#651=DIRECTION('',(0.,1.,0.));
#652=DIRECTION('center_axis',(1.,0.,0.));
#653=DIRECTION('ref_axis',(0.,-1.,0.));
#654=DIRECTION('',(0.,0.,-1.));
#655=DIRECTION('',(0.,-1.,0.));
#656=DIRECTION('',(0.,0.,1.));
#657=DIRECTION('center_axis',(0.,-1.,0.));
#658=DIRECTION('ref_axis',(1.,0.,0.));
#659=DIRECTION('',(1.,0.,0.));
#660=DIRECTION('',(0.,0.,1.));
#661=DIRECTION('',(1.,0.,0.));
#662=DIRECTION('',(0.,0.,1.));
#663=DIRECTION('',(1.,0.,0.));
#664=DIRECTION('center_axis',(0.,0.,1.));
#665=DIRECTION('ref_axis',(1.,0.,0.));
#666=DIRECTION('',(0.,1.,0.));
#667=DIRECTION('',(-1.,0.,0.));
#668=DIRECTION('',(0.,-1.,0.));
#669=DIRECTION('center_axis',(-1.,0.,0.));
#670=DIRECTION('ref_axis',(0.,-1.,0.));
#671=DIRECTION('',(0.,0.,1.));
#672=DIRECTION('',(0.,-1.,0.));
#673=DIRECTION('center_axis',(0.,1.,0.));
#674=DIRECTION('ref_axis',(-1.,0.,0.));
#675=DIRECTION('',(0.,0.,1.));
#676=DIRECTION('',(-1.,0.,0.));
#677=DIRECTION('center_axis',(0.,0.,1.));
#678=DIRECTION('ref_axis',(1.,0.,0.));
#679=DIRECTION('center_axis',(0.,0.,1.));
#680=DIRECTION('ref_axis',(1.,0.,0.));
#681=DIRECTION('',(0.,0.,-1.));
#682=DIRECTION('center_axis',(0.,0.,-1.));
#683=DIRECTION('ref_axis',(1.,0.,0.));
#684=DIRECTION('center_axis',(0.,0.,1.));
#685=DIRECTION('ref_axis',(1.,0.,0.));
#686=DIRECTION('center_axis',(0.,0.,1.));
#687=DIRECTION('ref_axis',(1.,0.,0.));
#688=DIRECTION('',(0.,0.,-1.));
#689=DIRECTION('center_axis',(0.,0.,-1.));
#690=DIRECTION('ref_axis',(1.,0.,0.));
#691=DIRECTION('center_axis',(0.,0.,1.));
#692=DIRECTION('ref_axis',(1.,0.,0.));
#693=DIRECTION('center_axis',(0.,0.,1.));
#694=DIRECTION('ref_axis',(1.,0.,0.));
#695=DIRECTION('',(0.,0.,-1.));
#696=DIRECTION('center_axis',(0.,0.,-1.));
#697=DIRECTION('ref_axis',(1.,0.,0.));
#698=DIRECTION('center_axis',(0.,0.,1.));
#699=DIRECTION('ref_axis',(1.,0.,0.));
#700=DIRECTION('center_axis',(0.,0.,1.));
#701=DIRECTION('ref_axis',(1.,0.,0.));
#702=DIRECTION('',(0.,0.,-1.));
#703=DIRECTION('center_axis',(0.,0.,-1.));
#704=DIRECTION('ref_axis',(1.,0.,0.));
#705=DIRECTION('center_axis',(1.,0.,0.));
#706=DIRECTION('ref_axis',(0.,1.,0.));
#707=DIRECTION('',(0.,1.,0.));
#708=DIRECTION('center_axis',(-1.,0.,0.));
#709=DIRECTION('ref_axis',(0.,-1.,0.));
#710=DIRECTION('',(0.,1.,0.));
#711=DIRECTION('',(0.,0.,1.));
#712=DIRECTION('',(0.,-1.,0.));
#713=DIRECTION('',(0.,0.,1.));
#714=DIRECTION('center_axis',(0.,1.,0.));
#715=DIRECTION('ref_axis',(-1.,0.,0.));
#716=DIRECTION('',(-1.,0.,0.));
#717=DIRECTION('',(0.,0.,1.));
#718=DIRECTION('',(1.,0.,0.));
#719=DIRECTION('',(-1.,0.,0.));
#720=DIRECTION('center_axis',(1.,0.,0.));
#721=DIRECTION('ref_axis',(0.,1.,0.));
#722=DIRECTION('',(0.,-1.,0.));
#723=DIRECTION('',(0.,1.,0.));
#724=DIRECTION('',(0.,0.,1.));
#725=DIRECTION('center_axis',(0.,-1.,0.));
#726=DIRECTION('ref_axis',(1.,0.,0.));
#727=DIRECTION('',(-1.,0.,0.));
#728=DIRECTION('',(1.,0.,0.));
#729=DIRECTION('center_axis',(0.,0.,1.));
#730=DIRECTION('ref_axis',(1.,0.,0.));
#731=DIRECTION('center_axis',(0.,0.,1.));
#732=DIRECTION('ref_axis',(1.,0.,0.));
#733=DIRECTION('center_axis',(0.,0.,1.));
#734=DIRECTION('ref_axis',(1.,0.,0.));
#735=DIRECTION('center_axis',(0.,0.,1.));
#736=DIRECTION('ref_axis',(1.,0.,0.));
#737=DIRECTION('center_axis',(0.,0.,1.));
#738=DIRECTION('ref_axis',(1.,0.,0.));
#739=DIRECTION('center_axis',(0.,0.,1.));
#740=DIRECTION('ref_axis',(1.,0.,0.));
#741=DIRECTION('center_axis',(0.,0.,1.));
#742=DIRECTION('ref_axis',(1.,0.,0.));
#743=DIRECTION('center_axis',(0.,0.,-1.));
#744=DIRECTION('ref_axis',(1.,0.,0.));
#745=DIRECTION('',(0.,0.,-1.));
#746=DIRECTION('center_axis',(0.,0.,-1.));
#747=DIRECTION('ref_axis',(1.,0.,0.));
#748=DIRECTION('center_axis',(0.,0.,1.));
#749=DIRECTION('ref_axis',(1.,0.,0.));
#750=DIRECTION('center_axis',(0.,0.,1.));
#751=DIRECTION('ref_axis',(1.,0.,0.));
#752=DIRECTION('',(0.,0.,-1.));
#753=DIRECTION('center_axis',(0.,0.,1.));
#754=DIRECTION('ref_axis',(1.,0.,0.));
#755=DIRECTION('center_axis',(0.,0.,1.));
#756=DIRECTION('ref_axis',(1.,0.,0.));
#757=DIRECTION('center_axis',(0.,0.,1.));
#758=DIRECTION('ref_axis',(1.,0.,0.));
#759=DIRECTION('center_axis',(0.,0.,-1.));
#760=DIRECTION('ref_axis',(1.,0.,0.));
#761=DIRECTION('',(0.,0.,-1.));
#762=DIRECTION('center_axis',(0.,0.,-1.));
#763=DIRECTION('ref_axis',(1.,0.,0.));
#764=DIRECTION('center_axis',(0.,0.,1.));
#765=DIRECTION('ref_axis',(1.,0.,0.));
#766=DIRECTION('center_axis',(0.,0.,1.));
#767=DIRECTION('ref_axis',(1.,0.,0.));
#768=DIRECTION('',(0.,0.,-1.));
#769=DIRECTION('center_axis',(0.,0.,1.));
#770=DIRECTION('ref_axis',(1.,0.,0.));
#771=DIRECTION('center_axis',(0.,0.,1.));
#772=DIRECTION('ref_axis',(1.,0.,0.));
#773=DIRECTION('center_axis',(0.,0.,1.));
#774=DIRECTION('ref_axis',(1.,0.,0.));
#775=DIRECTION('center_axis',(0.,0.,-1.));
#776=DIRECTION('ref_axis',(1.,0.,0.));
#777=DIRECTION('',(0.,0.,-1.));
#778=DIRECTION('center_axis',(0.,0.,-1.));
#779=DIRECTION('ref_axis',(1.,0.,0.));
#780=DIRECTION('center_axis',(0.,0.,1.));
#781=DIRECTION('ref_axis',(1.,0.,0.));
#782=DIRECTION('center_axis',(0.,0.,1.));
#783=DIRECTION('ref_axis',(1.,0.,0.));
#784=DIRECTION('',(0.,0.,-1.));
#785=DIRECTION('center_axis',(0.,0.,1.));
#786=DIRECTION('ref_axis',(1.,0.,0.));
#787=DIRECTION('center_axis',(0.,0.,1.));
#788=DIRECTION('ref_axis',(1.,0.,0.));
#789=DIRECTION('center_axis',(0.,0.,1.));
#790=DIRECTION('ref_axis',(1.,0.,0.));
#791=DIRECTION('center_axis',(0.,0.,-1.));
#792=DIRECTION('ref_axis',(1.,0.,0.));
#793=DIRECTION('',(0.,0.,-1.));
#794=DIRECTION('center_axis',(0.,0.,-1.));
#795=DIRECTION('ref_axis',(1.,0.,0.));
#796=DIRECTION('center_axis',(0.,0.,1.));
#797=DIRECTION('ref_axis',(1.,0.,0.));
#798=DIRECTION('center_axis',(0.,0.,1.));
#799=DIRECTION('ref_axis',(1.,0.,0.));
#800=DIRECTION('',(0.,0.,-1.));
#801=DIRECTION('center_axis',(0.,0.,1.));
#802=DIRECTION('ref_axis',(1.,0.,0.));
#803=DIRECTION('center_axis',(0.,0.,1.));
#804=DIRECTION('ref_axis',(1.,0.,0.));
#805=CARTESIAN_POINT('',(0.,0.,0.));
#806=CARTESIAN_POINT('Origin',(33.,39.,0.55));
#807=CARTESIAN_POINT('',(34.,38.3,0.55));
#808=CARTESIAN_POINT('',(32.,38.3,0.55));
#809=CARTESIAN_POINT('',(16.5,38.3,0.55));
#810=CARTESIAN_POINT('',(34.,39.25,0.55));
#811=CARTESIAN_POINT('',(34.,40.,0.55));
#812=CARTESIAN_POINT('',(32.,39.25,0.55));
#813=CARTESIAN_POINT('',(34.575,39.25,0.55));
#814=CARTESIAN_POINT('',(32.,38.,0.55));
#815=CARTESIAN_POINT('Origin',(32.,38.,1.3));
#816=CARTESIAN_POINT('',(32.,38.3,1.3));
#817=CARTESIAN_POINT('',(32.,38.3,0.65));
#818=CARTESIAN_POINT('',(32.,39.25,1.3));
#819=CARTESIAN_POINT('',(32.,39.25,0.65));
#820=CARTESIAN_POINT('',(32.,34.8,1.3));
#821=CARTESIAN_POINT('Origin',(34.,40.,1.3));
#822=CARTESIAN_POINT('',(34.,38.3,1.3));
#823=CARTESIAN_POINT('',(34.,38.3,0.65));
#824=CARTESIAN_POINT('',(34.,39.25,1.3));
#825=CARTESIAN_POINT('',(34.,35.8,1.3));
#826=CARTESIAN_POINT('',(34.,39.25,0.65));
#827=CARTESIAN_POINT('Origin',(0.,38.3,0.));
#828=CARTESIAN_POINT('',(0.,38.3,1.3));
#829=CARTESIAN_POINT('',(35.1,38.3,1.3));
#830=CARTESIAN_POINT('',(0.,38.3,0.3));
#831=CARTESIAN_POINT('',(0.,38.3,0.));
#832=CARTESIAN_POINT('',(35.1,38.3,0.3));
#833=CARTESIAN_POINT('',(8.775,38.3,0.3));
#834=CARTESIAN_POINT('',(35.1,38.3,1.3));
#835=CARTESIAN_POINT('',(35.1,38.3,0.));
#836=CARTESIAN_POINT('',(35.1,38.3,1.3));
#837=CARTESIAN_POINT('Origin',(17.55,31.65,0.3));
#838=CARTESIAN_POINT('',(0.,25.,0.3));
#839=CARTESIAN_POINT('',(0.,28.325,0.3));
#840=CARTESIAN_POINT('',(35.1,25.,0.3));
#841=CARTESIAN_POINT('',(26.325,25.,0.3));
#842=CARTESIAN_POINT('',(35.1,34.975,0.3));
#843=CARTESIAN_POINT('Origin',(35.1,38.3,0.));
#844=CARTESIAN_POINT('',(35.1,25.,1.3));
#845=CARTESIAN_POINT('',(35.1,25.,0.));
#846=CARTESIAN_POINT('',(35.1,25.,1.3));
#847=CARTESIAN_POINT('Origin',(35.1,25.,0.));
#848=CARTESIAN_POINT('',(0.,25.,1.3));
#849=CARTESIAN_POINT('',(0.,25.,0.));
#850=CARTESIAN_POINT('',(0.,25.,1.3));
#851=CARTESIAN_POINT('Origin',(-0.449999999999989,38.75,0.));
#852=CARTESIAN_POINT('',(-0.749999999999992,38.75,0.31));
#853=CARTESIAN_POINT('Origin',(-0.449999999999989,38.75,0.31));
#854=CARTESIAN_POINT('',(-0.749999999999992,38.75,0.));
#855=CARTESIAN_POINT('',(-0.749999999999992,38.75,0.));
#856=CARTESIAN_POINT('Origin',(-0.449999999999989,38.75,0.));
#857=CARTESIAN_POINT('Origin',(-0.449999999999989,24.45,0.));
#858=CARTESIAN_POINT('',(-0.75,24.45,0.31));
#859=CARTESIAN_POINT('Origin',(-0.449999999999989,24.45,0.31));
#860=CARTESIAN_POINT('',(-0.75,24.45,0.));
#861=CARTESIAN_POINT('',(-0.75,24.45,0.));
#862=CARTESIAN_POINT('Origin',(-0.449999999999989,24.45,0.));
#863=CARTESIAN_POINT('Origin',(35.65,24.45,0.));
#864=CARTESIAN_POINT('',(35.35,24.45,0.31));
#865=CARTESIAN_POINT('Origin',(35.65,24.45,0.31));
#866=CARTESIAN_POINT('',(35.35,24.45,0.));
#867=CARTESIAN_POINT('',(35.35,24.45,0.));
#868=CARTESIAN_POINT('Origin',(35.65,24.45,0.));
#869=CARTESIAN_POINT('Origin',(35.65,38.75,0.));
#870=CARTESIAN_POINT('',(35.35,38.75,0.31));
#871=CARTESIAN_POINT('Origin',(35.65,38.75,0.31));
#872=CARTESIAN_POINT('',(35.35,38.75,0.));
#873=CARTESIAN_POINT('',(35.35,38.75,0.));
#874=CARTESIAN_POINT('Origin',(35.65,38.75,0.));
#875=CARTESIAN_POINT('Origin',(0.,25.,0.));
#876=CARTESIAN_POINT('',(0.,38.3,1.3));
#877=CARTESIAN_POINT('Origin',(-0.949999999999989,39.25,0.));
#878=CARTESIAN_POINT('',(-0.949999999999989,23.95,0.));
#879=CARTESIAN_POINT('',(-0.949999999999989,39.25,0.));
#880=CARTESIAN_POINT('',(-0.949999999999989,23.95,0.));
#881=CARTESIAN_POINT('',(-0.949999999999989,23.95,1.3));
#882=CARTESIAN_POINT('',(-0.949999999999989,23.95,0.));
#883=CARTESIAN_POINT('',(-0.949999999999989,39.25,1.3));
#884=CARTESIAN_POINT('',(-0.949999999999989,23.95,1.3));
#885=CARTESIAN_POINT('',(-0.949999999999989,39.25,0.));
#886=CARTESIAN_POINT('Origin',(36.15,39.25,0.));
#887=CARTESIAN_POINT('',(36.15,39.25,1.3));
#888=CARTESIAN_POINT('',(-0.949999999999989,39.25,1.3));
#889=CARTESIAN_POINT('',(36.15,39.25,0.));
#890=CARTESIAN_POINT('',(36.15,39.25,0.));
#891=CARTESIAN_POINT('',(-0.949999999999989,39.25,0.));
#892=CARTESIAN_POINT('',(-0.949999999999989,39.25,1.3));
#893=CARTESIAN_POINT('Origin',(36.15,23.95,0.));
#894=CARTESIAN_POINT('',(36.15,23.95,0.));
#895=CARTESIAN_POINT('',(36.15,39.25,0.));
#896=CARTESIAN_POINT('',(36.15,23.95,1.3));
#897=CARTESIAN_POINT('',(36.15,39.25,1.3));
#898=CARTESIAN_POINT('',(36.15,23.95,0.));
#899=CARTESIAN_POINT('Origin',(-0.949999999999989,23.95,0.));
#900=CARTESIAN_POINT('',(36.15,23.95,0.));
#901=CARTESIAN_POINT('',(36.15,23.95,1.3));
#902=CARTESIAN_POINT('Origin',(17.6,31.6,1.3));
#903=CARTESIAN_POINT('',(-0.75,24.45,1.3));
#904=CARTESIAN_POINT('Origin',(-0.449999999999989,24.45,1.3));
#905=CARTESIAN_POINT('',(35.35,38.75,1.3));
#906=CARTESIAN_POINT('Origin',(35.65,38.75,1.3));
#907=CARTESIAN_POINT('',(35.35,24.45,1.3));
#908=CARTESIAN_POINT('Origin',(35.65,24.45,1.3));
#909=CARTESIAN_POINT('',(-0.749999999999992,38.75,1.3));
#910=CARTESIAN_POINT('Origin',(-0.449999999999989,38.75,1.3));
#911=CARTESIAN_POINT('Origin',(17.6,31.6,0.));
#912=CARTESIAN_POINT('Origin',(35.65,38.75,0.31));
#913=CARTESIAN_POINT('',(35.48,38.75,1.31));
#914=CARTESIAN_POINT('Origin',(35.65,38.75,1.31));
#915=CARTESIAN_POINT('',(35.48,38.75,0.31));
#916=CARTESIAN_POINT('',(35.48,38.75,0.31));
#917=CARTESIAN_POINT('Origin',(35.65,38.75,0.31));
#918=CARTESIAN_POINT('Origin',(35.65,38.75,0.31));
#919=CARTESIAN_POINT('',(35.35,38.75,1.31));
#920=CARTESIAN_POINT('Origin',(35.65,38.75,1.31));
#921=CARTESIAN_POINT('',(35.35,38.75,0.31));
#922=CARTESIAN_POINT('Origin',(35.65,38.75,1.31));
#923=CARTESIAN_POINT('Origin',(35.65,38.75,0.31));
#924=CARTESIAN_POINT('Origin',(35.65,24.45,0.31));
#925=CARTESIAN_POINT('',(35.48,24.45,1.31));
#926=CARTESIAN_POINT('Origin',(35.65,24.45,1.31));
#927=CARTESIAN_POINT('',(35.48,24.45,0.31));
#928=CARTESIAN_POINT('',(35.48,24.45,0.31));
#929=CARTESIAN_POINT('Origin',(35.65,24.45,0.31));
#930=CARTESIAN_POINT('Origin',(35.65,24.45,0.31));
#931=CARTESIAN_POINT('',(35.35,24.45,1.31));
#932=CARTESIAN_POINT('Origin',(35.65,24.45,1.31));
#933=CARTESIAN_POINT('',(35.35,24.45,0.31));
#934=CARTESIAN_POINT('Origin',(35.65,24.45,1.31));
#935=CARTESIAN_POINT('Origin',(35.65,24.45,0.31));
#936=CARTESIAN_POINT('Origin',(-0.449999999999989,24.45,0.31));
#937=CARTESIAN_POINT('',(-0.619999999999987,24.45,1.31));
#938=CARTESIAN_POINT('Origin',(-0.449999999999989,24.45,1.31));
#939=CARTESIAN_POINT('',(-0.619999999999987,24.45,0.31));
#940=CARTESIAN_POINT('',(-0.619999999999987,24.45,0.31));
#941=CARTESIAN_POINT('Origin',(-0.449999999999989,24.45,0.31));
#942=CARTESIAN_POINT('Origin',(-0.449999999999989,24.45,0.31));
#943=CARTESIAN_POINT('',(-0.75,24.45,1.31));
#944=CARTESIAN_POINT('Origin',(-0.449999999999989,24.45,1.31));
#945=CARTESIAN_POINT('',(-0.75,24.45,0.31));
#946=CARTESIAN_POINT('Origin',(-0.449999999999989,24.45,1.31));
#947=CARTESIAN_POINT('Origin',(-0.449999999999989,24.45,0.31));
#948=CARTESIAN_POINT('Origin',(-0.449999999999989,38.75,0.31));
#949=CARTESIAN_POINT('',(-0.619999999999989,38.75,1.31));
#950=CARTESIAN_POINT('Origin',(-0.449999999999989,38.75,1.31));
#951=CARTESIAN_POINT('',(-0.619999999999989,38.75,0.31));
#952=CARTESIAN_POINT('',(-0.619999999999989,38.75,0.31));
#953=CARTESIAN_POINT('Origin',(-0.449999999999989,38.75,0.31));
#954=CARTESIAN_POINT('Origin',(-0.449999999999989,38.75,0.31));
#955=CARTESIAN_POINT('',(-0.749999999999992,38.75,1.31));
#956=CARTESIAN_POINT('Origin',(-0.449999999999989,38.75,1.31));
#957=CARTESIAN_POINT('',(-0.749999999999992,38.75,0.31));
#958=CARTESIAN_POINT('Origin',(-0.449999999999989,38.75,1.31));
#959=CARTESIAN_POINT('Origin',(-0.449999999999989,38.75,0.31));
#960=UNCERTAINTY_MEASURE_WITH_UNIT(LENGTH_MEASURE(0.001),#964,
'DISTANCE_ACCURACY_VALUE',
'Maximum model space distance between geometric entities at asserted c
onnectivities');
#961=UNCERTAINTY_MEASURE_WITH_UNIT(LENGTH_MEASURE(0.001),#964,
'DISTANCE_ACCURACY_VALUE',
'Maximum model space distance between geometric entities at asserted c
onnectivities');
#962=(
GEOMETRIC_REPRESENTATION_CONTEXT(3)
GLOBAL_UNCERTAINTY_ASSIGNED_CONTEXT((#960))
GLOBAL_UNIT_ASSIGNED_CONTEXT((#964,#966,#967))
REPRESENTATION_CONTEXT('','3D')
);
#963=(
GEOMETRIC_REPRESENTATION_CONTEXT(3)
GLOBAL_UNCERTAINTY_ASSIGNED_CONTEXT((#961))
GLOBAL_UNIT_ASSIGNED_CONTEXT((#964,#966,#967))
REPRESENTATION_CONTEXT('','3D')
);
#964=(
LENGTH_UNIT()
NAMED_UNIT(*)
SI_UNIT(.CENTI.,.METRE.)
);
#965=(
LENGTH_UNIT()
NAMED_UNIT(*)
SI_UNIT($,.METRE.)
);
#966=(
NAMED_UNIT(*)
PLANE_ANGLE_UNIT()
SI_UNIT($,.RADIAN.)
);
#967=(
NAMED_UNIT(*)
SI_UNIT($,.STERADIAN.)
SOLID_ANGLE_UNIT()
);
#968=SHAPE_DEFINITION_REPRESENTATION(#969,#970);
#969=PRODUCT_DEFINITION_SHAPE('',$,#972);
#970=SHAPE_REPRESENTATION('',(#580),#962);
#971=PRODUCT_DEFINITION_CONTEXT('part definition',#976,'design');
#972=PRODUCT_DEFINITION('2026-01-12-19-14-13-415','KeyboardBottom',#973,
#971);
#973=PRODUCT_DEFINITION_FORMATION('',$,#978);
#974=PRODUCT_RELATED_PRODUCT_CATEGORY('KeyboardBottom','KeyboardBottom',
(#978));
#975=APPLICATION_PROTOCOL_DEFINITION('international standard',
'automotive_design',2009,#976);
#976=APPLICATION_CONTEXT(
'Core Data for Automotive Mechanical Design Process');
#977=PRODUCT_CONTEXT('part definition',#976,'mechanical');
#978=PRODUCT('2026-01-12-19-14-13-415','KeyboardBottom',$,(#977));
#979=PRESENTATION_STYLE_ASSIGNMENT((#980));
#980=SURFACE_STYLE_USAGE(.BOTH.,#981);
#981=SURFACE_SIDE_STYLE('',(#982));
#982=SURFACE_STYLE_FILL_AREA(#983);
#983=FILL_AREA_STYLE('Steel - Satin',(#984));
#984=FILL_AREA_STYLE_COLOUR('Steel - Satin',#985);
#985=COLOUR_RGB('Steel - Satin',0.627450980392157,0.627450980392157,0.627450980392157);
ENDSEC;
END-ISO-10303-21;
